<?xml version="1.0" standalone="no"?>
<!DOCTYPE svg PUBLIC "-//W3C//DTD SVG 20010904//EN"
 "http://www.w3.org/TR/2001/REC-SVG-20010904/DTD/svg10.dtd">
<svg version="1.0" xmlns="http://www.w3.org/2000/svg"
 width="512.000000pt" height="512.000000pt" viewBox="0 0 512.000000 512.000000"
 preserveAspectRatio="xMidYMid meet">
<metadata>
Created by potrace 1.14, written by Peter Selinger 2001-2017
</metadata>
<g transform="translate(0.000000,512.000000) scale(0.100000,-0.100000)"
fill="#000000" stroke="none">
<path d="M2379 5116 c-2 -2 -38 -6 -79 -10 -64 -6 -213 -30 -315 -51 -278 -58
-623 -211 -881 -390 -217 -152 -357 -283 -561 -528 -44 -53 -170 -244 -219
-332 -132 -238 -223 -485 -273 -740 -40 -200 -46 -267 -45 -515 0 -183 3 -241
19 -345 3 -16 7 -43 9 -60 31 -220 148 -573 253 -763 14 -26 37 -67 50 -92
107 -195 303 -440 495 -617 364 -335 845 -568 1314 -638 22 -4 50 -8 64 -11
109 -19 469 -26 600 -12 123 14 269 37 280 43 4 2 22 7 41 10 19 3 73 17 121
30 909 259 1604 995 1808 1913 20 93 27 127 35 192 26 203 28 536 4 685 -4 28
-10 68 -13 90 -3 22 -8 51 -11 65 -3 14 -10 46 -15 71 -5 26 -21 88 -35 137
-178 634 -588 1170 -1160 1514 -151 91 -394 200 -545 244 -65 19 -252 65 -280
69 -19 3 -46 8 -60 10 -14 3 -41 7 -60 10 -19 3 -53 7 -75 11 -46 6 -460 16
-466 10z m401 -220 c84 -9 134 -17 225 -32 63 -11 224 -55 320 -88 476 -162
901 -490 1183 -911 189 -283 322 -624 368 -940 3 -22 7 -51 10 -65 9 -51 18
-198 18 -300 0 -831 -435 -1593 -1153 -2021 -194 -116 -480 -230 -661 -265
-14 -3 -33 -7 -42 -10 -24 -7 -51 -12 -136 -24 -311 -44 -634 -30 -907 40
-103 27 -247 71 -260 80 -5 4 -28 13 -50 20 -57 18 -214 95 -323 157 -384 221
-717 580 -916 986 -168 344 -241 661 -240 1042 0 176 8 268 39 440 18 98 88
343 115 400 5 11 21 49 36 85 69 170 194 376 330 545 310 385 735 661 1224
794 41 11 88 22 104 25 16 3 54 10 85 17 61 12 68 13 191 24 47 4 86 8 88 10
5 4 299 -3 352 -9z"/>
<path d="M1440 2560 l0 -1120 255 0 255 0 1 28 c0 15 0 306 0 647 -1 564 1
618 15 600 8 -11 48 -73 87 -138 40 -65 97 -159 128 -210 363 -598 346 -572
377 -575 29 -3 35 7 305 450 152 249 283 462 291 473 13 18 14 -25 15 -375 0
-217 0 -509 0 -647 l1 -253 255 0 255 0 0 1120 0 1120 -257 -2 -258 -3 -258
-420 c-142 -231 -261 -427 -265 -435 -14 -30 -77 -129 -82 -129 -3 0 -61 92
-130 206 -69 113 -191 314 -272 446 -82 132 -148 242 -148 244 0 3 -14 24 -30
49 l-31 44 -254 0 -255 0 0 -1120z"/>
</g>
</svg>
